<svg xmlns="http://www.w3.org/2000/svg" viewBox="0 0 24 24" width="32" height="32">
  <rect width="24" height="24" rx="6" fill="#4b2fd6"/>
  <path d="M7.5 4.75h6.25a.5.5 0 0 1 .35.15l3.25 3.25a.5.5 0 0 1 .15.35V19a.75.75 0 0 1-.75.75h-9A.75.75 0 0 1 7 19V5.5a.75.75 0 0 1 .5-.75Z" fill="none" stroke="#ffffff" stroke-width="1.4" stroke-linejoin="round"/>
  <path d="M14 4.75V7.5a1 1 0 0 0 1 1h2.75" stroke="#ffffff" stroke-width="1.4" stroke-linejoin="round" fill="none"/>
  <path d="M9.5 12.5h5M9.5 15.25h5M9.5 9.75h2.5" stroke="#ffffff" stroke-width="1.4" stroke-linecap="round"/>
</svg>